<svg id="Layer_1" data-name="Layer 1" xmlns="http://www.w3.org/2000/svg" viewBox="0 0 16 16"><defs><style>.cls-1{fill:#a200de;stroke:#000;stroke-miterlimit:10;stroke-width:0.15px;}</style></defs><path class="cls-1" d="M7,1c.57-.13,2,4.22,3,4,.41-.09.43-.81,1-1s1.44.44,2,1C8.7,6,6,6.73,4.24,7.21A8.91,8.91,0,0,0,2,8c0,.1.73,0,1,0,0,0,.63,0,2.24.08S8,8.67,10,9c2.75.45,4.63.17,4.65.43s-.91.45-1.65.57c-4.76.79-10.15,1-10.18,1.49,0,.1.58,0,1.18.51s.56.89,1,1,.56-.29,1-.27,1,.77,2,2.27c-.06-.63-.15-1.57-.27-2.71C7.05,5.64,6.49,1.11,7,1Z"/></svg>